<svg width="32" height="32" viewBox="0 0 32 32" fill="none" xmlns="http://www.w3.org/2000/svg">
<path d="M10.4968 15.9334C10.2146 15.9334 9.979 16.0292 9.79011 16.2207C9.60123 16.4125 9.50678 16.6501 9.50678 16.9334V21.7667C9.50678 22.0501 9.60311 22.2875 9.79578 22.4791C9.98867 22.6708 10.2262 22.7667 10.5084 22.7667C10.7909 22.7667 11.0279 22.6708 11.2194 22.4791C11.411 22.2875 11.5068 22.0501 11.5068 21.7667V16.9334C11.5068 16.6501 11.409 16.4125 11.2134 16.2207C11.0181 16.0292 10.7792 15.9334 10.4968 15.9334ZM21.4918 8.76672C21.2093 8.76672 20.9737 8.8625 20.7848 9.05406C20.5959 9.24583 20.5014 9.48339 20.5014 9.76672V21.7667C20.5014 22.0501 20.5979 22.2875 20.7908 22.4791C20.9834 22.6708 21.221 22.7667 21.5034 22.7667C21.7857 22.7667 22.0226 22.6708 22.2141 22.4791C22.4057 22.2875 22.5014 22.0501 22.5014 21.7667V9.76672C22.5014 9.48339 22.4038 9.24583 22.2084 9.05406C22.0129 8.8625 21.774 8.76672 21.4918 8.76672ZM15.9941 18.8334C15.7092 18.8334 15.4723 18.9292 15.2834 19.1207C15.0946 19.3125 15.0001 19.5501 15.0001 19.8334V21.7667C15.0001 22.0501 15.0966 22.2875 15.2894 22.4791C15.4821 22.6708 15.721 22.7667 16.0061 22.7667C16.291 22.7667 16.5279 22.6708 16.7168 22.4791C16.9057 22.2875 17.0001 22.0501 17.0001 21.7667V19.8334C17.0001 19.5501 16.9037 19.3125 16.7108 19.1207C16.5181 18.9292 16.2792 18.8334 15.9941 18.8334ZM6.07178 28.1994C5.45845 28.1994 4.92667 27.9742 4.47645 27.5237C4.026 27.0735 3.80078 26.5417 3.80078 25.9284V6.07172C3.80078 5.45617 4.026 4.9225 4.47645 4.47072C4.92667 4.01872 5.45845 3.79272 6.07178 3.79272H25.9284C26.544 3.79272 27.0777 4.01872 27.5294 4.47072C27.9814 4.9225 28.2074 5.45617 28.2074 6.07172V25.9284C28.2074 26.5417 27.9814 27.0735 27.5294 27.5237C27.0777 27.9742 26.544 28.1994 25.9284 28.1994H6.07178ZM6.07178 25.9284H25.9284V6.07172H6.07178V25.9284ZM16.0061 15.9334C16.291 15.9334 16.5279 15.8369 16.7168 15.6441C16.9057 15.4514 17.0001 15.2125 17.0001 14.9274C17.0001 14.6425 16.9037 14.4056 16.7108 14.2167C16.5181 14.0278 16.2792 13.9334 15.9941 13.9334C15.7092 13.9334 15.4723 14.0298 15.2834 14.2227C15.0946 14.4154 15.0001 14.6543 15.0001 14.9394C15.0001 15.2243 15.0966 15.4612 15.2894 15.6501C15.4821 15.8389 15.721 15.9334 16.0061 15.9334Z" fill="white"/>
</svg>
