<svg width="32" height="32" viewBox="0 0 32 32" fill="none" xmlns="http://www.w3.org/2000/svg">
<path d="M11.7884 14.7407L14.7328 11.7964L12.3601 9.43203L11.4444 10.332C11.2391 10.5425 11.0018 10.6451 10.7324 10.64C10.4631 10.6347 10.2258 10.532 10.0204 10.332C9.82045 10.1267 9.72045 9.88803 9.72045 9.61603C9.72045 9.34403 9.82045 9.10803 10.0204 8.90803L10.9364 7.99203L8.49211 5.58903L5.55578 8.54136L11.7884 14.7407ZM23.4334 26.4524L26.3778 23.4747L23.9254 21.0304L23.0174 21.9464C22.8121 22.1464 22.5734 22.2464 22.3014 22.2464C22.0294 22.2464 21.7934 22.1437 21.5934 21.9384C21.3883 21.733 21.2858 21.4944 21.2858 21.2224C21.2858 20.9504 21.3883 20.7118 21.5934 20.5067L22.5014 19.5987L20.1624 17.2514L17.2101 20.2037L23.4334 26.4524ZM4.93645 28.1994C4.61022 28.1994 4.33945 28.0916 4.12411 27.876C3.90856 27.6607 3.80078 27.3899 3.80078 27.0637V23.184C3.80078 23.0296 3.82567 22.8888 3.87545 22.7617C3.92522 22.6346 4.011 22.5101 4.13278 22.3884L10.2278 16.2934L3.67778 9.75136C3.32934 9.39781 3.15934 8.99181 3.16778 8.53336C3.17622 8.07492 3.34622 7.66892 3.67778 7.31536L7.24878 3.6857C7.597 3.33192 8.00034 3.15503 8.45878 3.15503C8.91722 3.15503 9.32322 3.32925 9.67678 3.6777L16.2934 10.269L22.1791 4.38336C22.3844 4.17803 22.6133 4.02825 22.8658 3.93403C23.1182 3.83981 23.3719 3.7927 23.6268 3.7927C23.8819 3.7927 24.1357 3.83981 24.3881 3.93403C24.6406 4.02825 24.8694 4.17803 25.0748 4.38336L27.6168 6.91736C27.8221 7.1227 27.9719 7.35158 28.0661 7.60403C28.1603 7.85647 28.2074 8.11025 28.2074 8.36536C28.2074 8.62558 28.1603 8.88192 28.0661 9.13436C27.9719 9.38681 27.8221 9.61569 27.6168 9.82103L21.7311 15.6987L28.3224 22.29C28.6709 22.6436 28.8451 23.0496 28.8451 23.508C28.8451 23.9665 28.6709 24.3698 28.3224 24.718L24.7261 28.289C24.3726 28.6375 23.9666 28.8117 23.5081 28.8117C23.0497 28.8117 22.6437 28.6375 22.2901 28.289L15.7241 21.7234L9.59578 27.8594C9.474 27.9811 9.34956 28.0682 9.22245 28.1207C9.09556 28.1731 8.95745 28.1994 8.80811 28.1994H4.93645ZM5.98411 26.016H8.32545L21.1624 13.1377L18.8291 10.7964L5.98411 23.6667V26.016ZM19.9958 11.963L18.8291 10.7964L21.1624 13.1377L19.9958 11.963Z" fill="white"/>
</svg>
