<svg width="32" height="32" viewBox="0 0 32 32" fill="none" xmlns="http://www.w3.org/2000/svg">
<path d="M6.67395 14.3746L3.03895 12.3159C2.86251 12.2228 2.72306 12.0885 2.62062 11.9129C2.5184 11.7376 2.46729 11.5458 2.46729 11.3376V7.16956C2.46729 6.96134 2.5184 6.76956 2.62062 6.59423C2.72306 6.41867 2.86251 6.28434 3.03895 6.19123L6.67395 4.14056C6.84351 4.041 7.02962 3.99123 7.23229 3.99123C7.43495 3.99123 7.62462 4.041 7.80128 4.14056L11.4443 6.19123C11.6154 6.28434 11.7535 6.41867 11.8586 6.59423C11.9635 6.76956 12.016 6.96134 12.016 7.16956V11.3376C12.016 11.5458 11.9635 11.7376 11.8586 11.9129C11.7535 12.0885 11.6154 12.2228 11.4443 12.3159L7.80128 14.3746C7.63173 14.4741 7.44562 14.5239 7.24295 14.5239C7.04028 14.5239 6.85062 14.4741 6.67395 14.3746ZM7.23762 12.1592L9.80062 10.6899V7.81723L7.23762 6.34756L4.68262 7.81723V10.6899L7.23762 12.1592ZM21.8739 14.9962V12.4492L25.7383 14.7029C26.0976 14.9153 26.3767 15.1921 26.5756 15.5332C26.7745 15.8743 26.8739 16.2439 26.8739 16.6419V23.5172C26.8739 23.9101 26.7745 24.2783 26.5756 24.6219C26.3767 24.9657 26.0976 25.2412 25.7383 25.4486L19.9056 28.8609C19.5447 29.0651 19.1618 29.1672 18.757 29.1672C18.3518 29.1672 17.9725 29.0651 17.619 28.8609L11.7863 25.4486C11.427 25.2412 11.1492 24.9657 10.953 24.6219C10.7567 24.2783 10.6586 23.9101 10.6586 23.5172V16.6419C10.6586 16.2439 10.7567 15.8743 10.953 15.5332C11.1492 15.1921 11.427 14.9153 11.7863 14.7029L15.6586 12.4492V14.9962L12.874 16.6356V23.5409L18.7623 26.9522L24.6586 23.5409V16.6356L21.8739 14.9962ZM19.8739 10.0079V16.9042C19.8739 17.2142 19.7656 17.4757 19.5489 17.6886C19.3321 17.9015 19.0678 18.0079 18.7563 18.0079C18.4447 18.0079 18.184 17.9015 17.974 17.6886C17.7637 17.4757 17.6586 17.2142 17.6586 16.9042V3.6029C17.6586 3.28223 17.7677 3.01145 17.986 2.79056C18.2042 2.56967 18.4736 2.45923 18.7943 2.45923H27.4523C27.8943 2.45923 28.2257 2.66223 28.4466 3.06823C28.6677 3.47445 28.6512 3.86545 28.3969 4.24123L27.4833 5.59123C27.3562 5.78234 27.2926 5.99578 27.2926 6.23156C27.2926 6.46756 27.3562 6.68501 27.4833 6.8839L28.3969 8.2259C28.6512 8.60701 28.6677 8.99934 28.4466 9.4029C28.2257 9.80623 27.8943 10.0079 27.4523 10.0079H19.8739Z" fill="white"/>
</svg>
