<svg width="162" height="40" viewBox="0 0 162 40" fill="none" xmlns="http://www.w3.org/2000/svg">
<path d="M39.9984 29.1908C39.9098 27.205 37.8889 26.0895 36.7629 26.089C34.7534 26.0879 30.6513 27.882 28.6516 28.0748C27.9842 28.1392 26.739 28.2031 25.6326 27.585C32.4687 28.2981 36.1319 25.3656 36.6949 21.5748C37.3912 16.8918 32.5155 14.4005 30.4049 17.5361C29.6841 18.6073 30.1666 21.3869 32.3866 20.7236C32.3866 20.7236 30.5403 20.0514 31.6789 18.4162C32.237 17.6131 33.6905 17.7834 34.3971 18.6963C35.2316 19.7768 35.4965 21.72 33.4658 23.7707C29.1374 28.1446 24.1421 25.0014 24.1421 25.0014C24.1421 25.0014 23.3169 24.356 24.2373 23.3083C27.172 23.6659 30.8243 19.3433 27.8574 17.4629C24.9303 15.6071 21.1203 19.9499 21.0224 20.0624C21.6267 18.8006 23.2984 17.1987 26.1749 16.6892C27.0388 16.5358 27.9548 13.8092 27.4582 11.9845C26.5824 8.77022 21.4858 6.4323 20.3957 0V8.76749C20.8412 9.93045 21.692 10.5687 21.4494 11.3921C21.1442 12.43 20.0002 13.1889 20.0002 13.1889C20.0002 13.1889 18.8557 12.43 18.5506 11.3921C18.3079 10.5687 19.1587 9.93045 19.6042 8.76749V0C18.5141 6.4323 13.4181 8.77022 12.5418 11.9845C12.0457 13.8092 12.9617 16.5358 13.825 16.6892C16.7016 17.1987 18.3732 18.8006 18.9776 20.0624C18.8802 19.9499 15.0696 15.6071 12.1425 17.4629C9.17567 19.3433 12.8279 23.6659 15.7627 23.3083C16.6831 24.356 15.8579 25.0014 15.8579 25.0014C15.8579 25.0014 10.8625 28.1446 6.53412 23.7707C4.504 21.72 4.76892 19.7768 5.60283 18.6963C6.30946 17.7834 7.76296 17.6131 8.32162 18.4162C9.46017 20.0514 7.61337 20.7236 7.61337 20.7236C9.83388 21.3869 10.3158 18.6073 9.59562 17.5361C7.48444 14.4005 2.60879 16.8918 3.30508 21.5748C3.86864 25.3656 7.53177 28.2981 14.3679 27.585C13.2609 28.2031 12.0163 28.1392 11.3483 28.0748C9.34865 27.882 5.24707 26.0879 3.23762 26.089C2.11159 26.0895 0.0901784 27.205 0.00151028 29.1908C-0.0333042 29.9775 0.533519 31.3933 1.72918 31.788C2.24596 31.9589 4.07263 32.2117 3.80608 29.9333C3.80608 29.9333 3.41877 31.0837 2.39555 30.832C1.92392 30.7163 1.36743 30.2554 1.54477 29.2727C1.68566 28.4968 2.71921 27.9623 3.23762 27.906C5.70728 27.6374 10.4872 30.8719 12.854 30.4209C15.4031 29.9338 16.7951 27.9383 17.1879 27.288L17.2037 27.3153C17.2037 27.3153 17.0269 29.0237 13.8887 30.7321C12.3247 31.5844 9.20178 32.1986 8.46415 35.361C8.13939 36.7593 8.77639 39.6885 11.8564 39.9888C13.1576 40.1155 16.0581 39.1807 15.4009 36.5976C14.7906 34.2002 12.4025 35.361 12.4025 35.361C13.8762 35.1186 15.4156 38.1837 12.365 38.2296C11.5033 38.2422 9.93832 37.184 10.6618 35.2207C11.221 33.7044 14.6595 32.7386 16.1625 32.1598C19.9736 30.6944 20.0002 26.7289 20.0002 26.7289C20.0002 26.7289 20.0269 30.6944 23.838 32.1598C25.341 32.7386 28.7789 33.7044 29.3381 35.2207C30.0622 37.184 28.4972 38.2422 27.6355 38.2296C24.5849 38.1837 26.1238 35.1186 27.598 35.361C27.598 35.361 25.2094 34.2002 24.5996 36.5976C23.9424 39.1807 26.8424 40.1155 28.1436 39.9888C31.2241 39.6885 31.8611 36.7593 31.5358 35.361C30.7987 32.1986 27.6757 31.5844 26.1113 30.7321C22.9736 29.0237 22.7963 27.3153 22.7963 27.3153L22.8121 27.288C23.2048 27.9383 24.5968 29.9338 27.1465 30.4209C29.5128 30.8719 34.2927 27.6374 36.7629 27.906C37.2813 27.9623 38.3143 28.4968 38.4557 29.2727C38.6325 30.2554 38.076 30.7163 37.6044 30.832C36.5812 31.0837 36.1944 29.9333 36.1944 29.9333C35.9279 32.2117 37.754 31.9589 38.2708 31.788C39.467 31.3933 40.0338 29.9775 39.9984 29.1908ZM17.5088 21.5464C16.7783 21.4443 15.1017 21.501 14.3462 20.883C13.59 20.2644 13.4508 19.3591 13.4508 19.3591C13.4508 19.3591 13.1081 19.2188 12.6054 19.5955C12.6054 19.5955 12.9933 18.9578 13.819 19.0092C14.6443 19.0594 16.8479 19.6081 19.1092 22.2021C19.0826 22.1852 18.228 21.6463 17.5088 21.5464ZM22.4911 21.5464C21.772 21.6463 20.9174 22.1852 20.8907 22.2021C23.152 19.6081 25.3557 19.0594 26.1809 19.0092C27.0067 18.9578 27.3945 19.5955 27.3945 19.5955C26.8924 19.2188 26.5497 19.3591 26.5497 19.3591C26.5497 19.3591 26.4099 20.2644 25.6543 20.883C24.8988 21.501 23.2217 21.4443 22.4911 21.5464Z" fill="white"/>
<path d="M52.8267 27H50.4972L55.7315 12.4545H58.267L63.5014 27H61.1719L57.0597 15.0966H56.946L52.8267 27ZM53.2173 21.304H60.7741V23.1506H53.2173V21.304ZM69.8509 27.2202C68.795 27.2202 67.8859 26.9811 67.1236 26.5028C66.366 26.0199 65.7836 25.3546 65.3764 24.5071C64.9692 23.6596 64.7656 22.6889 64.7656 21.5952C64.7656 20.4872 64.974 19.5095 65.3906 18.6619C65.8073 17.8097 66.3944 17.1444 67.152 16.6662C67.9096 16.188 68.8021 15.9489 69.8295 15.9489C70.6581 15.9489 71.3968 16.1027 72.0455 16.4105C72.6941 16.7135 73.2173 17.1397 73.6151 17.6889C74.0175 18.2382 74.2566 18.8797 74.3324 19.6136H72.2656C72.152 19.1023 71.8916 18.6619 71.4844 18.2926C71.0819 17.9233 70.5421 17.7386 69.8651 17.7386C69.2732 17.7386 68.7547 17.8949 68.3097 18.2074C67.8693 18.5152 67.526 18.9555 67.2798 19.5284C67.0336 20.0966 66.9105 20.7689 66.9105 21.5455C66.9105 22.3409 67.0313 23.0275 67.2727 23.6051C67.5142 24.1828 67.8551 24.6302 68.2955 24.9474C68.7405 25.2647 69.2637 25.4233 69.8651 25.4233C70.2675 25.4233 70.6321 25.3499 70.9588 25.2031C71.2902 25.0516 71.5672 24.8362 71.7898 24.5568C72.017 24.2775 72.1757 23.9413 72.2656 23.5483H74.3324C74.2566 24.2538 74.027 24.8835 73.6435 25.4375C73.2599 25.9915 72.7462 26.4271 72.1023 26.7443C71.4631 27.0616 70.7126 27.2202 69.8509 27.2202ZM76.6033 27V16.0909H78.7269V27H76.6033ZM77.6758 14.4077C77.3065 14.4077 76.9892 14.2846 76.7241 14.0384C76.4637 13.7874 76.3335 13.4891 76.3335 13.1435C76.3335 12.7931 76.4637 12.4948 76.7241 12.2486C76.9892 11.9976 77.3065 11.8722 77.6758 11.8722C78.0451 11.8722 78.36 11.9976 78.6204 12.2486C78.8855 12.4948 79.0181 12.7931 79.0181 13.1435C79.0181 13.4891 78.8855 13.7874 78.6204 14.0384C78.36 14.2846 78.0451 14.4077 77.6758 14.4077ZM85.6676 27.2131C84.7869 27.2131 84.0009 26.9882 83.3097 26.5384C82.6231 26.0838 82.0833 25.4375 81.6903 24.5994C81.3021 23.7566 81.108 22.7457 81.108 21.5668C81.108 20.3878 81.3045 19.3793 81.6974 18.5412C82.0952 17.7031 82.6397 17.0616 83.331 16.6165C84.0223 16.1714 84.8059 15.9489 85.6818 15.9489C86.3589 15.9489 86.9034 16.0625 87.3153 16.2898C87.732 16.5123 88.054 16.7727 88.2812 17.071C88.5133 17.3693 88.6932 17.6321 88.821 17.8594H88.9489V12.4545H91.0724V27H88.9986V25.3026H88.821C88.6932 25.5346 88.5085 25.7997 88.267 26.098C88.0303 26.3963 87.7036 26.6567 87.2869 26.8793C86.8703 27.1018 86.3305 27.2131 85.6676 27.2131ZM86.1364 25.402C86.7472 25.402 87.2633 25.241 87.6847 24.919C88.1108 24.5923 88.4328 24.1402 88.6506 23.5625C88.8731 22.9848 88.9844 22.3125 88.9844 21.5455C88.9844 20.7879 88.8755 20.125 88.6577 19.5568C88.4399 18.9886 88.1203 18.5459 87.6989 18.2287C87.2775 17.9115 86.7566 17.7528 86.1364 17.7528C85.4972 17.7528 84.9645 17.9186 84.5384 18.25C84.1122 18.5814 83.7902 19.0336 83.5724 19.6065C83.3594 20.1795 83.2528 20.8258 83.2528 21.5455C83.2528 22.2746 83.3617 22.9304 83.5795 23.5128C83.7973 24.0952 84.1193 24.5568 84.5455 24.8977C84.9763 25.2339 85.5066 25.402 86.1364 25.402ZM101.014 22.4759V16.0909H103.145V27H101.056V25.1108H100.943C100.692 25.6932 100.289 26.1785 99.7354 26.5668C99.1862 26.9503 98.502 27.142 97.6829 27.142C96.9821 27.142 96.3619 26.9882 95.8221 26.6804C95.2871 26.3679 94.8656 25.9062 94.5579 25.2955C94.2549 24.6847 94.1033 23.9295 94.1033 23.0298V16.0909H96.2269V22.7741C96.2269 23.5175 96.4329 24.1094 96.8448 24.5497C97.2567 24.9901 97.7918 25.2102 98.4499 25.2102C98.8477 25.2102 99.243 25.1108 99.636 24.9119C100.034 24.7131 100.363 24.4124 100.623 24.0099C100.888 23.6075 101.019 23.0961 101.014 22.4759ZM114.173 18.7543L112.248 19.0952C112.167 18.849 112.04 18.6146 111.864 18.392C111.694 18.1695 111.462 17.9872 111.168 17.8452C110.875 17.7031 110.508 17.6321 110.067 17.6321C109.466 17.6321 108.964 17.767 108.562 18.0369C108.159 18.3021 107.958 18.6454 107.958 19.0668C107.958 19.4313 108.093 19.7249 108.363 19.9474C108.633 20.17 109.068 20.3523 109.67 20.4943L111.403 20.892C112.406 21.1241 113.155 21.4815 113.647 21.9645C114.139 22.4474 114.386 23.0748 114.386 23.8466C114.386 24.5 114.196 25.0824 113.817 25.5938C113.443 26.1004 112.92 26.4981 112.248 26.7869C111.58 27.0758 110.806 27.2202 109.925 27.2202C108.704 27.2202 107.707 26.9598 106.935 26.4389C106.164 25.9134 105.69 25.1676 105.515 24.2017L107.567 23.8892C107.695 24.4242 107.958 24.8291 108.356 25.1037C108.754 25.3736 109.272 25.5085 109.911 25.5085C110.607 25.5085 111.164 25.3641 111.58 25.0753C111.997 24.7817 112.205 24.4242 112.205 24.0028C112.205 23.6619 112.077 23.3755 111.822 23.1435C111.571 22.9115 111.185 22.7363 110.664 22.6179L108.817 22.2131C107.799 21.9811 107.047 21.6117 106.559 21.1051C106.076 20.5985 105.835 19.9569 105.835 19.1804C105.835 18.5365 106.014 17.973 106.374 17.4901C106.734 17.0071 107.231 16.6307 107.866 16.3608C108.5 16.0862 109.227 15.9489 110.046 15.9489C111.225 15.9489 112.153 16.2045 112.83 16.7159C113.507 17.2225 113.955 17.902 114.173 18.7543ZM116.891 27V12.4545H119.086V25.1108H125.676V27H116.891ZM131.184 27.2415C130.493 27.2415 129.868 27.1136 129.309 26.858C128.751 26.5975 128.308 26.2211 127.981 25.7287C127.659 25.2363 127.498 24.6326 127.498 23.9176C127.498 23.3021 127.617 22.7955 127.853 22.3977C128.09 22 128.41 21.6851 128.812 21.4531C129.215 21.2211 129.664 21.0459 130.162 20.9276C130.659 20.8092 131.165 20.7192 131.681 20.6577C132.335 20.5819 132.865 20.5204 133.272 20.473C133.68 20.4209 133.975 20.3381 134.16 20.2244C134.345 20.1108 134.437 19.9261 134.437 19.6705V19.6207C134.437 19.0005 134.262 18.5199 133.912 18.179C133.566 17.8381 133.05 17.6676 132.363 17.6676C131.648 17.6676 131.085 17.8262 130.673 18.1435C130.266 18.456 129.984 18.804 129.828 19.1875L127.832 18.733C128.069 18.0701 128.414 17.535 128.869 17.1278C129.328 16.7159 129.856 16.4176 130.453 16.233C131.049 16.0436 131.677 15.9489 132.335 15.9489C132.77 15.9489 133.232 16.0009 133.72 16.1051C134.212 16.2045 134.672 16.3892 135.098 16.6591C135.529 16.929 135.881 17.3149 136.156 17.8168C136.431 18.3139 136.568 18.9602 136.568 19.7557V27H134.494V25.5085H134.409C134.271 25.7831 134.065 26.053 133.791 26.3182C133.516 26.5833 133.163 26.8035 132.733 26.9787C132.302 27.1539 131.786 27.2415 131.184 27.2415ZM131.646 25.5369C132.233 25.5369 132.735 25.4209 133.152 25.1889C133.573 24.9569 133.893 24.6539 134.11 24.2798C134.333 23.901 134.444 23.4962 134.444 23.0653V21.6591C134.368 21.7348 134.222 21.8059 134.004 21.8722C133.791 21.9337 133.547 21.9882 133.272 22.0355C132.998 22.0781 132.73 22.1184 132.47 22.1562C132.209 22.1894 131.992 22.2178 131.816 22.2415C131.404 22.2936 131.028 22.3812 130.687 22.5043C130.351 22.6274 130.081 22.8049 129.877 23.0369C129.679 23.2642 129.579 23.5672 129.579 23.946C129.579 24.4716 129.773 24.8693 130.162 25.1392C130.55 25.4044 131.045 25.5369 131.646 25.5369ZM139.567 27V12.4545H141.69V17.8594H141.818C141.941 17.6321 142.119 17.3693 142.351 17.071C142.583 16.7727 142.905 16.5123 143.317 16.2898C143.729 16.0625 144.273 15.9489 144.95 15.9489C145.831 15.9489 146.617 16.1714 147.308 16.6165C148 17.0616 148.542 17.7031 148.935 18.5412C149.332 19.3793 149.531 20.3878 149.531 21.5668C149.531 22.7457 149.335 23.7566 148.942 24.5994C148.549 25.4375 148.009 26.0838 147.322 26.5384C146.636 26.9882 145.852 27.2131 144.972 27.2131C144.309 27.2131 143.767 27.1018 143.345 26.8793C142.929 26.6567 142.602 26.3963 142.365 26.098C142.128 25.7997 141.946 25.5346 141.818 25.3026H141.641V27H139.567ZM141.648 21.5455C141.648 22.3125 141.759 22.9848 141.982 23.5625C142.204 24.1402 142.526 24.5923 142.947 24.919C143.369 25.241 143.885 25.402 144.496 25.402C145.13 25.402 145.661 25.2339 146.087 24.8977C146.513 24.5568 146.835 24.0952 147.053 23.5128C147.275 22.9304 147.386 22.2746 147.386 21.5455C147.386 20.8258 147.277 20.1795 147.06 19.6065C146.847 19.0336 146.525 18.5814 146.094 18.25C145.668 17.9186 145.135 17.7528 144.496 17.7528C143.88 17.7528 143.359 17.9115 142.933 18.2287C142.512 18.5459 142.192 18.9886 141.974 19.5568C141.757 20.125 141.648 20.7879 141.648 21.5455ZM160.091 18.7543L158.166 19.0952C158.085 18.849 157.958 18.6146 157.782 18.392C157.612 18.1695 157.38 17.9872 157.086 17.8452C156.793 17.7031 156.426 17.6321 155.985 17.6321C155.384 17.6321 154.882 17.767 154.48 18.0369C154.077 18.3021 153.876 18.6454 153.876 19.0668C153.876 19.4313 154.011 19.7249 154.281 19.9474C154.551 20.17 154.986 20.3523 155.588 20.4943L157.321 20.892C158.324 21.1241 159.073 21.4815 159.565 21.9645C160.057 22.4474 160.304 23.0748 160.304 23.8466C160.304 24.5 160.114 25.0824 159.735 25.5938C159.361 26.1004 158.838 26.4981 158.166 26.7869C157.498 27.0758 156.724 27.2202 155.843 27.2202C154.622 27.2202 153.625 26.9598 152.853 26.4389C152.082 25.9134 151.608 25.1676 151.433 24.2017L153.485 23.8892C153.613 24.4242 153.876 24.8291 154.274 25.1037C154.672 25.3736 155.19 25.5085 155.829 25.5085C156.525 25.5085 157.082 25.3641 157.498 25.0753C157.915 24.7817 158.123 24.4242 158.123 24.0028C158.123 23.6619 157.995 23.3755 157.74 23.1435C157.489 22.9115 157.103 22.7363 156.582 22.6179L154.735 22.2131C153.717 21.9811 152.965 21.6117 152.477 21.1051C151.994 20.5985 151.752 19.9569 151.752 19.1804C151.752 18.5365 151.932 17.973 152.292 17.4901C152.652 17.0071 153.149 16.6307 153.784 16.3608C154.418 16.0862 155.145 15.9489 155.964 15.9489C157.143 15.9489 158.071 16.2045 158.748 16.7159C159.425 17.2225 159.873 17.902 160.091 18.7543Z" fill="white"/>
</svg>
