<svg width="956" height="196" viewBox="0 0 956 196" fill="none" xmlns="http://www.w3.org/2000/svg">
<path d="M195.993 142.545C195.558 132.848 185.656 127.401 180.138 127.398C170.292 127.393 150.192 136.154 140.393 137.095C137.123 137.41 131.021 137.722 125.6 134.704C159.097 138.186 177.046 123.866 179.805 105.354C183.217 82.4865 159.326 70.3207 148.984 85.6326C145.452 90.8637 147.817 104.437 158.694 101.198C158.694 101.198 149.648 97.9157 155.227 89.9305C157.961 86.0085 165.084 86.8404 168.546 91.2982C172.635 96.5746 173.933 106.064 163.983 116.078C142.773 137.437 118.296 122.087 118.296 122.087C118.296 122.087 114.253 118.936 118.763 113.82C133.143 115.566 151.039 94.4577 136.502 85.2753C122.159 76.213 103.49 97.4198 103.01 97.9691C105.971 91.8075 114.162 83.9849 128.257 81.4973C132.49 80.7481 136.979 67.4332 134.545 58.5228C130.254 42.827 105.281 31.4104 99.9391 0V42.8136C102.122 48.4926 106.291 51.6094 105.102 55.63C103.607 60.6984 98.0013 64.4044 98.0013 64.4044C98.0013 64.4044 92.3931 60.6984 90.8978 55.63C89.709 51.6094 93.8778 48.4926 96.0609 42.8136V0C90.7192 31.4104 65.7489 42.827 61.4548 58.5228C59.0239 67.4332 63.5126 80.7481 67.7427 81.4973C81.8378 83.9849 90.0289 91.8075 92.9902 97.9691C92.5131 97.4198 73.8414 76.213 59.4984 85.2753C44.9608 94.4577 62.8569 115.566 77.2372 113.82C81.7472 118.936 77.7037 122.087 77.7037 122.087C77.7037 122.087 53.2265 137.437 32.0172 116.078C22.0696 106.064 23.3677 96.5746 27.4539 91.2982C30.9164 86.8404 38.0386 86.0085 40.776 89.9305C46.3549 97.9157 37.3055 101.198 37.3055 101.198C48.1861 104.437 50.5477 90.8637 47.0186 85.6326C36.6738 70.3207 12.7831 82.4865 16.1949 105.354C18.9563 123.866 36.9057 138.186 70.4029 134.704C64.9786 137.722 58.88 137.41 55.6068 137.095C45.8084 136.154 25.7107 127.393 15.8644 127.398C10.3468 127.401 0.441875 132.848 0.00740037 142.545C-0.163191 146.387 2.61425 153.3 8.47298 155.228C11.0052 156.063 19.9559 157.297 18.6498 146.171C18.6498 146.171 16.752 151.789 11.7382 150.56C9.42723 149.994 6.70044 147.744 7.56938 142.945C8.25974 139.156 13.3242 136.546 15.8644 136.271C27.9657 134.96 51.3873 150.754 62.9848 148.552C75.4753 146.174 82.2963 136.429 84.2208 133.253L84.2981 133.387C84.2981 133.387 83.4318 141.729 68.0546 150.072C60.3913 154.234 45.0888 157.233 41.4744 172.676C39.8831 179.504 43.0044 193.808 58.0963 195.274C64.4722 195.893 78.6846 191.328 75.4646 178.715C72.474 167.007 60.7725 172.676 60.7725 172.676C67.9933 171.492 75.5366 186.46 60.5886 186.684C56.3664 186.745 48.6978 181.578 52.2429 171.99C54.983 164.586 71.8316 159.87 79.1963 157.044C97.8707 149.888 98.0013 130.523 98.0013 130.523C98.0013 130.523 98.1319 149.888 116.806 157.044C124.171 159.87 141.017 164.586 143.757 171.99C147.305 181.578 139.636 186.745 135.414 186.684C120.466 186.46 128.007 171.492 135.23 172.676C135.23 172.676 123.526 167.007 120.538 178.715C117.318 191.328 131.528 195.893 137.904 195.274C152.998 193.808 156.12 179.504 154.526 172.676C150.914 157.233 135.611 154.234 127.945 150.072C112.571 141.729 111.702 133.387 111.702 133.387L111.779 133.253C113.704 136.429 120.525 146.174 133.018 148.552C144.613 150.754 168.034 134.96 180.138 136.271C182.678 136.546 187.74 139.156 188.433 142.945C189.3 147.744 186.573 149.994 184.262 150.56C179.248 151.789 177.353 146.171 177.353 146.171C176.047 157.297 184.995 156.063 187.527 155.228C193.388 153.3 196.166 146.387 195.993 142.545ZM85.7934 105.216C82.2137 104.717 73.9986 104.994 70.2963 101.976C66.5912 98.9555 65.9089 94.535 65.9089 94.535C65.9089 94.535 64.2296 93.8498 61.7667 95.6895C61.7667 95.6895 63.6672 92.5753 67.7134 92.826C71.757 93.0713 82.5548 95.7508 93.6353 108.418C93.5047 108.335 89.3172 105.704 85.7934 105.216ZM110.207 105.216C106.683 105.704 102.495 108.335 102.365 108.418C113.445 95.7508 124.243 93.0713 128.287 92.826C132.333 92.5753 134.233 95.6895 134.233 95.6895C131.773 93.8498 130.094 94.535 130.094 94.535C130.094 94.535 129.409 98.9555 125.706 101.976C122.004 104.994 113.786 104.717 110.207 105.216Z" fill="white"/>
<path d="M262.091 144.664H247.182L280.682 51.5736H296.909L330.409 144.664H315.5L289.182 68.4827H288.455L262.091 144.664ZM264.591 108.21H312.955V120.028H264.591V108.21ZM371.045 146.074C364.288 146.074 358.47 144.543 353.591 141.483C348.742 138.392 345.015 134.134 342.409 128.71C339.803 123.286 338.5 117.074 338.5 110.074C338.5 102.983 339.833 96.7251 342.5 91.3008C345.167 85.8463 348.924 81.5887 353.773 78.5281C358.621 75.4675 364.333 73.9372 370.909 73.9372C376.212 73.9372 380.939 74.9221 385.091 76.8918C389.242 78.8312 392.591 81.5584 395.136 85.0736C397.712 88.5887 399.242 92.6948 399.727 97.3918H386.5C385.773 94.119 384.106 91.3009 381.5 88.9372C378.924 86.5736 375.47 85.3918 371.136 85.3918C367.348 85.3918 364.03 86.3918 361.182 88.3918C358.364 90.3615 356.167 93.1796 354.591 96.8463C353.015 100.483 352.227 104.786 352.227 109.755C352.227 114.846 353 119.24 354.545 122.937C356.091 126.634 358.273 129.498 361.091 131.528C363.939 133.558 367.288 134.574 371.136 134.574C373.712 134.574 376.045 134.104 378.136 133.164C380.258 132.195 382.03 130.816 383.455 129.028C384.909 127.24 385.924 125.089 386.5 122.574H399.727C399.242 127.089 397.773 131.119 395.318 134.664C392.864 138.21 389.576 140.998 385.455 143.028C381.364 145.058 376.561 146.074 371.045 146.074ZM414.261 144.664V74.8463H427.852V144.664H414.261ZM421.125 64.0736C418.761 64.0736 416.731 63.2857 415.034 61.7099C413.367 60.1039 412.534 58.1948 412.534 55.9827C412.534 53.7402 413.367 51.8312 415.034 50.2554C416.731 48.6493 418.761 47.8463 421.125 47.8463C423.489 47.8463 425.504 48.6493 427.17 50.2554C428.867 51.8312 429.716 53.7402 429.716 55.9827C429.716 58.1948 428.867 60.1039 427.17 61.7099C425.504 63.2857 423.489 64.0736 421.125 64.0736ZM472.273 146.028C466.636 146.028 461.606 144.589 457.182 141.71C452.788 138.801 449.333 134.664 446.818 129.301C444.333 123.907 443.091 117.437 443.091 109.892C443.091 102.346 444.348 95.8918 446.864 90.5281C449.409 85.1645 452.894 81.0584 457.318 78.2099C461.742 75.3615 466.758 73.9372 472.364 73.9372C476.697 73.9372 480.182 74.6645 482.818 76.119C485.485 77.5433 487.545 79.2099 489 81.119C490.485 83.0281 491.636 84.7099 492.455 86.1645H493.273V51.5736H506.864V144.664H493.591V133.801H492.455C491.636 135.286 490.455 136.983 488.909 138.892C487.394 140.801 485.303 142.468 482.636 143.892C479.97 145.316 476.515 146.028 472.273 146.028ZM475.273 134.437C479.182 134.437 482.485 133.407 485.182 131.346C487.909 129.255 489.97 126.361 491.364 122.664C492.788 118.968 493.5 114.664 493.5 109.755C493.5 104.907 492.803 100.664 491.409 97.0281C490.015 93.3918 487.97 90.5584 485.273 88.5281C482.576 86.4978 479.242 85.4827 475.273 85.4827C471.182 85.4827 467.773 86.5433 465.045 88.6645C462.318 90.7857 460.258 93.6796 458.864 97.3463C457.5 101.013 456.818 105.149 456.818 109.755C456.818 114.422 457.515 118.619 458.909 122.346C460.303 126.074 462.364 129.028 465.091 131.21C467.848 133.361 471.242 134.437 475.273 134.437ZM570.489 115.71V74.8463H584.125V144.664H570.761V132.574H570.034C568.428 136.301 565.852 139.407 562.307 141.892C558.792 144.346 554.413 145.574 549.17 145.574C544.686 145.574 540.716 144.589 537.261 142.619C533.837 140.619 531.14 137.664 529.17 133.755C527.231 129.846 526.261 125.013 526.261 119.255V74.8463H539.852V117.619C539.852 122.377 541.17 126.164 543.807 128.983C546.443 131.801 549.867 133.21 554.08 133.21C556.625 133.21 559.155 132.574 561.67 131.301C564.216 130.028 566.322 128.104 567.989 125.528C569.686 122.952 570.519 119.68 570.489 115.71ZM654.705 91.8918L642.386 94.0736C641.871 92.4978 641.053 90.9978 639.932 89.5736C638.841 88.1493 637.356 86.9827 635.477 86.0736C633.598 85.1645 631.25 84.7099 628.432 84.7099C624.583 84.7099 621.371 85.5736 618.795 87.3008C616.22 88.9978 614.932 91.1948 614.932 93.8918C614.932 96.2251 615.795 98.1039 617.523 99.5281C619.25 100.952 622.038 102.119 625.886 103.028L636.977 105.574C643.402 107.058 648.189 109.346 651.341 112.437C654.492 115.528 656.068 119.543 656.068 124.483C656.068 128.664 654.856 132.392 652.432 135.664C650.038 138.907 646.689 141.452 642.386 143.301C638.114 145.149 633.159 146.074 627.523 146.074C619.705 146.074 613.326 144.407 608.386 141.074C603.447 137.71 600.417 132.937 599.295 126.755L612.432 124.755C613.25 128.18 614.932 130.771 617.477 132.528C620.023 134.255 623.341 135.119 627.432 135.119C631.886 135.119 635.447 134.195 638.114 132.346C640.78 130.468 642.114 128.18 642.114 125.483C642.114 123.301 641.295 121.468 639.659 119.983C638.053 118.498 635.583 117.377 632.25 116.619L620.432 114.028C613.917 112.543 609.098 110.18 605.977 106.937C602.886 103.695 601.341 99.5887 601.341 94.619C601.341 90.4978 602.492 86.8918 604.795 83.8008C607.098 80.7099 610.28 78.3009 614.341 76.5736C618.402 74.816 623.053 73.9372 628.295 73.9372C635.841 73.9372 641.78 75.5736 646.114 78.8463C650.447 82.0887 653.311 86.4372 654.705 91.8918ZM672.102 144.664V51.5736H686.148V132.574H728.33V144.664H672.102ZM763.58 146.21C759.155 146.21 755.155 145.392 751.58 143.755C748.004 142.089 745.17 139.68 743.08 136.528C741.019 133.377 739.989 129.513 739.989 124.937C739.989 120.998 740.746 117.755 742.261 115.21C743.777 112.664 745.822 110.649 748.398 109.164C750.973 107.68 753.852 106.558 757.034 105.801C760.216 105.043 763.458 104.468 766.761 104.074C770.943 103.589 774.337 103.195 776.943 102.892C779.549 102.558 781.443 102.028 782.625 101.301C783.807 100.574 784.398 99.3918 784.398 97.7554V97.4372C784.398 93.4675 783.277 90.3918 781.034 88.2099C778.822 86.0281 775.519 84.9372 771.125 84.9372C766.549 84.9372 762.943 85.9524 760.307 87.9827C757.701 89.9827 755.898 92.2099 754.898 94.6645L742.125 91.7554C743.64 87.513 745.852 84.0887 748.761 81.4827C751.701 78.8463 755.08 76.9372 758.898 75.7554C762.716 74.5433 766.731 73.9372 770.943 73.9372C773.731 73.9372 776.686 74.2706 779.807 74.9372C782.958 75.5736 785.898 76.7554 788.625 78.4827C791.383 80.2099 793.64 82.6796 795.398 85.8918C797.155 89.0736 798.034 93.2099 798.034 98.3009V144.664H784.761V135.119H784.216C783.337 136.877 782.019 138.604 780.261 140.301C778.504 141.998 776.246 143.407 773.489 144.528C770.731 145.649 767.428 146.21 763.58 146.21ZM766.534 135.301C770.292 135.301 773.504 134.558 776.17 133.074C778.867 131.589 780.913 129.649 782.307 127.255C783.731 124.831 784.443 122.24 784.443 119.483V110.483C783.958 110.968 783.019 111.422 781.625 111.846C780.261 112.24 778.701 112.589 776.943 112.892C775.186 113.164 773.473 113.422 771.807 113.664C770.14 113.877 768.746 114.058 767.625 114.21C764.989 114.543 762.58 115.104 760.398 115.892C758.246 116.68 756.519 117.816 755.216 119.301C753.943 120.755 753.307 122.695 753.307 125.119C753.307 128.483 754.549 131.028 757.034 132.755C759.519 134.452 762.686 135.301 766.534 135.301ZM817.227 144.664V51.5736H830.818V86.1645H831.636C832.424 84.7099 833.561 83.0281 835.045 81.119C836.53 79.2099 838.591 77.5433 841.227 76.119C843.864 74.6645 847.348 73.9372 851.682 73.9372C857.318 73.9372 862.348 75.3615 866.773 78.2099C871.197 81.0584 874.667 85.1645 877.182 90.5281C879.727 95.8918 881 102.346 881 109.892C881 117.437 879.742 123.907 877.227 129.301C874.712 134.664 871.258 138.801 866.864 141.71C862.47 144.589 857.455 146.028 851.818 146.028C847.576 146.028 844.106 145.316 841.409 143.892C838.742 142.468 836.652 140.801 835.136 138.892C833.621 136.983 832.455 135.286 831.636 133.801H830.5V144.664H817.227ZM830.545 109.755C830.545 114.664 831.258 118.968 832.682 122.664C834.106 126.361 836.167 129.255 838.864 131.346C841.561 133.407 844.864 134.437 848.773 134.437C852.833 134.437 856.227 133.361 858.955 131.21C861.682 129.028 863.742 126.074 865.136 122.346C866.561 118.619 867.273 114.422 867.273 109.755C867.273 105.149 866.576 101.013 865.182 97.3463C863.818 93.6796 861.758 90.7857 859 88.6645C856.273 86.5433 852.864 85.4827 848.773 85.4827C844.833 85.4827 841.5 86.4978 838.773 88.5281C836.076 90.5584 834.03 93.3918 832.636 97.0281C831.242 100.664 830.545 104.907 830.545 109.755ZM948.58 91.8918L936.261 94.0736C935.746 92.4978 934.928 90.9978 933.807 89.5736C932.716 88.1493 931.231 86.9827 929.352 86.0736C927.473 85.1645 925.125 84.7099 922.307 84.7099C918.458 84.7099 915.246 85.5736 912.67 87.3008C910.095 88.9978 908.807 91.1948 908.807 93.8918C908.807 96.2251 909.67 98.1039 911.398 99.5281C913.125 100.952 915.913 102.119 919.761 103.028L930.852 105.574C937.277 107.058 942.064 109.346 945.216 112.437C948.367 115.528 949.943 119.543 949.943 124.483C949.943 128.664 948.731 132.392 946.307 135.664C943.913 138.907 940.564 141.452 936.261 143.301C931.989 145.149 927.034 146.074 921.398 146.074C913.58 146.074 907.201 144.407 902.261 141.074C897.322 137.71 894.292 132.937 893.17 126.755L906.307 124.755C907.125 128.18 908.807 130.771 911.352 132.528C913.898 134.255 917.216 135.119 921.307 135.119C925.761 135.119 929.322 134.195 931.989 132.346C934.655 130.468 935.989 128.18 935.989 125.483C935.989 123.301 935.17 121.468 933.534 119.983C931.928 118.498 929.458 117.377 926.125 116.619L914.307 114.028C907.792 112.543 902.973 110.18 899.852 106.937C896.761 103.695 895.216 99.5887 895.216 94.619C895.216 90.4978 896.367 86.8918 898.67 83.8008C900.973 80.7099 904.155 78.3009 908.216 76.5736C912.277 74.816 916.928 73.9372 922.17 73.9372C929.716 73.9372 935.655 75.5736 939.989 78.8463C944.322 82.0887 947.186 86.4372 948.58 91.8918Z" fill="white"/>
</svg>
