<svg width="49" height="48" viewBox="0 0 49 48" fill="none" xmlns="http://www.w3.org/2000/svg">
<path d="M21.3933 16.7149C20.2393 15.5609 18.3685 15.5607 17.2147 16.7145C16.0608 17.8684 16.061 19.7392 17.215 20.8932L38.1073 41.7856C39.2613 42.9396 41.1322 42.9397 42.286 41.7859C43.4398 40.6321 43.4397 38.7612 42.2857 37.6072L21.3933 16.7149Z" stroke="#B028CC" stroke-width="2" stroke-miterlimit="10"/>
<path d="M17.223 16.723C16.9475 16.9984 16.729 17.3255 16.5799 17.6854C16.4307 18.0453 16.354 18.4311 16.354 18.8207C16.354 19.2102 16.4307 19.596 16.5799 19.9559C16.729 20.3158 16.9475 20.6429 17.223 20.9183L21.4296 25.1249L25.6249 20.9296L21.4183 16.723C21.1429 16.4475 20.8158 16.229 20.4559 16.0799C20.096 15.9307 19.7102 15.854 19.3207 15.854C18.9311 15.854 18.5453 15.9307 18.1854 16.0799C17.8255 16.229 17.4984 16.4475 17.223 16.723Z" fill="#B028CC"/>
<path d="M5 18H9.5H5ZM8.95437 8.45437L12.1362 11.6362L8.95437 8.45437ZM18.5 4.5V9V4.5ZM28.0456 8.45437L24.8637 11.6362L28.0456 8.45437ZM12.1362 24.3637L8.95437 27.5456L12.1362 24.3637Z" fill="#B028CC"/>
<path d="M5 18H9.5M8.95437 8.45437L12.1362 11.6362M18.5 4.5V9M28.0456 8.45437L24.8637 11.6362M12.1362 24.3637L8.95437 27.5456" stroke="#B028CC" stroke-width="2" stroke-miterlimit="10" stroke-linecap="round"/>
</svg>
