<svg width="49" height="48" viewBox="0 0 49 48" fill="none" xmlns="http://www.w3.org/2000/svg">
<path d="M30.0566 3.09375L9.5 28.5H21.5L18.5459 44.7403C18.5403 44.7722 18.5418 44.8049 18.5501 44.8361C18.5585 44.8674 18.5737 44.8964 18.5945 44.9212C18.6153 44.9459 18.6413 44.9658 18.6707 44.9794C18.7 44.9931 18.732 45.0001 18.7644 45C18.7988 45 18.8327 44.9919 18.8635 44.9764C18.8943 44.961 18.921 44.9385 18.9416 44.9109L39.5 19.5H27.5L30.4681 3.25781C30.4721 3.22546 30.4692 3.19262 30.4595 3.16148C30.4498 3.13035 30.4336 3.10163 30.412 3.07725C30.3903 3.05286 30.3638 3.03336 30.334 3.02004C30.3042 3.00672 30.272 2.99989 30.2394 3C30.2037 3.00014 30.1685 3.00871 30.1367 3.025C30.105 3.04129 30.0775 3.06484 30.0566 3.09375Z" stroke="#7F34F5" stroke-width="2" stroke-linecap="round" stroke-linejoin="round"/>
</svg>
