<svg width="49" height="48" viewBox="0 0 49 48" fill="none" xmlns="http://www.w3.org/2000/svg">
<path d="M8.28125 36C7.0625 32.9062 5 27.2466 5 24C5 13.23 14.4997 4.5 24.5 4.5C34.5003 4.5 44 13.23 44 24C44 27.2466 41.8438 33.0938 40.7188 36" stroke="#7F34F5" stroke-width="2" stroke-linecap="round" stroke-linejoin="round"/>
<path d="M10.6615 25.3246L9.37808 26.0746C6.54402 27.734 6.40621 32.863 9.06121 37.5308C11.7162 42.1987 16.174 44.638 19.0081 42.9796L20.2915 42.2296C20.6322 42.0267 20.8797 41.6984 20.981 41.3151C21.0823 40.9317 21.0293 40.524 20.8334 40.1793L12.6875 25.8749C12.5914 25.7049 12.4626 25.5556 12.3084 25.4357C12.1543 25.3159 11.9779 25.2278 11.7894 25.1766C11.601 25.1254 11.4043 25.1121 11.2106 25.1375C11.017 25.1629 10.8304 25.2265 10.6615 25.3246ZM38.3384 25.3246L39.6218 26.0746C42.4559 27.733 42.5975 32.8621 39.9387 37.5299C37.28 42.1977 32.8259 44.6371 29.9918 42.9787L28.7084 42.2287C28.3677 42.0258 28.1202 41.6975 28.0189 41.3141C27.9176 40.9308 27.9706 40.523 28.1665 40.1783L36.3125 25.8749C36.4085 25.7049 36.5373 25.5556 36.6915 25.4357C36.8456 25.3159 37.022 25.2278 37.2105 25.1766C37.3989 25.1254 37.5957 25.1121 37.7893 25.1375C37.9829 25.1629 38.1695 25.2265 38.3384 25.3246Z" stroke="#7F34F5" stroke-width="2" stroke-miterlimit="10"/>
</svg>
