<svg width="514" height="512" viewBox="0 0 514 512" fill="none" xmlns="http://www.w3.org/2000/svg">
<path d="M513.98 373.642C512.841 348.224 486.872 333.946 472.403 333.939C446.581 333.925 393.869 356.89 368.174 359.357C359.597 360.182 343.596 360.999 329.379 353.088C417.223 362.215 464.294 324.679 471.529 276.157C480.476 216.215 417.824 184.326 390.703 224.462C381.441 238.174 387.641 273.753 416.168 265.262C416.168 265.262 392.443 256.659 407.074 235.727C414.245 225.447 432.923 227.628 442.003 239.313C452.726 253.143 456.13 278.016 430.036 304.265C374.416 360.251 310.226 320.018 310.226 320.018C310.226 320.018 299.622 311.757 311.449 298.346C349.161 302.923 396.092 247.594 357.968 223.525C320.354 199.771 271.396 255.359 270.138 256.798C277.904 240.648 299.384 220.143 336.348 213.622C347.448 211.659 359.219 176.757 352.837 153.401C341.583 112.259 276.093 82.3334 262.085 0V112.224C267.81 127.11 278.742 135.279 275.625 145.818C271.703 159.104 257.003 168.818 257.003 168.818C257.003 168.818 242.296 159.104 238.375 145.818C235.257 135.279 246.19 127.11 251.914 112.224V0C237.906 82.3334 172.423 112.259 161.162 153.401C154.787 176.757 166.558 211.659 177.652 213.622C214.615 220.143 236.096 240.648 243.862 256.798C242.611 255.359 193.645 199.771 156.031 223.525C117.907 247.594 164.839 302.923 202.55 298.346C214.378 311.757 203.774 320.018 203.774 320.018C203.774 320.018 139.584 360.251 83.9634 304.265C57.8764 278.016 61.2806 253.143 71.9964 239.313C81.0765 227.628 99.754 225.447 106.933 235.727C121.563 256.659 97.8318 265.262 97.8318 265.262C126.365 273.753 132.559 238.174 123.304 224.462C96.1751 184.326 33.5229 216.215 42.4702 276.157C49.712 324.679 96.7833 362.215 184.628 353.088C170.403 360.999 154.41 360.182 145.826 359.357C120.13 356.89 67.4249 333.925 41.6035 333.939C27.134 333.946 1.15879 348.224 0.0194071 373.642C-0.427959 383.712 6.85572 401.834 22.2199 406.887C28.8605 409.074 52.3333 412.31 48.9081 383.146C48.9081 383.146 43.9312 397.871 30.7828 394.65C24.7224 393.168 17.5715 387.27 19.8503 374.69C21.6607 364.759 34.9419 357.917 41.6035 357.197C73.3385 353.759 134.76 395.16 165.174 389.387C197.93 383.153 215.818 357.61 220.864 349.286L221.067 349.636C221.067 349.636 218.795 371.503 178.469 393.371C158.373 404.28 118.243 412.142 108.764 452.621C104.591 470.519 112.777 508.013 152.354 511.856C169.075 513.478 206.346 501.513 197.902 468.45C190.059 437.763 159.373 452.621 159.373 452.621C178.309 449.518 198.091 488.752 158.89 489.339C147.818 489.5 127.707 475.956 137.004 450.824C144.19 431.417 188.374 419.054 207.688 411.646C256.661 392.888 257.003 342.13 257.003 342.13C257.003 342.13 257.346 392.888 306.318 411.646C325.632 419.054 369.809 431.417 376.995 450.824C386.299 475.956 366.188 489.5 355.116 489.339C315.916 488.752 335.691 449.518 354.634 452.621C354.634 452.621 323.94 437.763 316.104 468.45C307.66 501.513 344.925 513.478 361.645 511.856C401.23 508.013 409.415 470.519 405.235 452.621C395.764 412.142 355.633 404.28 335.53 393.371C295.211 371.503 292.932 349.636 292.932 349.636L293.135 349.286C298.182 357.61 316.069 383.153 348.832 389.387C379.239 395.16 440.661 353.759 472.403 357.197C479.064 357.917 492.339 364.759 494.156 374.69C496.428 387.27 489.277 393.168 483.217 394.65C470.068 397.871 465.098 383.146 465.098 383.146C461.673 412.31 485.139 409.074 491.779 406.887C507.151 401.834 514.434 383.712 513.98 373.642ZM224.989 275.793C215.601 274.487 194.057 275.213 184.348 267.302C174.632 259.384 172.842 247.797 172.842 247.797C172.842 247.797 168.439 246.001 161.98 250.823C161.98 250.823 166.964 242.66 177.575 243.317C188.179 243.96 216.496 250.984 245.553 284.187C245.211 283.97 234.229 277.072 224.989 275.793ZM289.011 275.793C279.77 277.072 268.788 283.97 268.446 284.187C297.504 250.984 325.821 243.96 336.425 243.317C347.036 242.66 352.02 250.823 352.02 250.823C345.568 246.001 341.164 247.797 341.164 247.797C341.164 247.797 339.367 259.384 329.658 267.302C319.949 275.213 298.399 274.487 289.011 275.793Z" fill="white"/>
</svg>
