<svg width="33" height="32" viewBox="0 0 33 32" fill="none" xmlns="http://www.w3.org/2000/svg">
<path d="M22.0062 14.5996C20.1999 14.5996 19.9499 16.3996 19.9499 16.3996H23.7874C23.7874 16.3996 23.8124 14.5996 22.0062 14.5996ZM13.2999 16.3996H9.8999V19.5246H13.1312C13.6187 19.5121 14.5312 19.3746 14.5312 18.0059C14.5312 16.3809 13.2999 16.3996 13.2999 16.3996Z" fill="#D8D8D8"/>
<path d="M16.5 2C8.76875 2 2.5 8.26875 2.5 16C2.5 23.7313 8.76875 30 16.5 30C24.2313 30 30.5 23.7313 30.5 16C30.5 8.26875 24.2313 2 16.5 2ZM19.45 10.6H24.2687V12.0375H19.45V10.6ZM17.0125 18.15C17.0125 21.7125 13.3 21.6 13.3 21.6H7.225V9.9125H13.3C15.15 9.9125 16.6063 10.9312 16.6063 13.025C16.6063 15.1187 14.825 15.25 14.825 15.25C17.175 15.25 17.0125 18.15 17.0125 18.15ZM26.025 17.9562H19.9688C19.9688 20.125 22.025 19.9875 22.025 19.9875C23.9688 19.9875 23.9 18.7313 23.9 18.7313H25.9562C25.9562 22.0688 21.9562 21.8375 21.9562 21.8375C17.1625 21.8375 17.4688 17.3687 17.4688 17.3687C17.4688 17.3687 17.4625 12.8813 21.9562 12.8813C26.6875 12.8875 26.025 17.9562 26.025 17.9562Z" fill="#D8D8D8"/>
<path d="M14.1249 13.2066C14.1249 11.9941 13.2999 11.9941 13.2999 11.9941H9.8999V14.6004H13.0874C13.6374 14.6004 14.1249 14.4191 14.1249 13.2066Z" fill="#D8D8D8"/>
</svg>
