<svg width="33" height="32" viewBox="0 0 33 32" fill="none" xmlns="http://www.w3.org/2000/svg">
<path d="M31.5 6.84376C30.3747 7.33273 29.184 7.65487 27.9656 7.80001C29.246 7.05025 30.209 5.85911 30.6737 4.45001C29.4632 5.15788 28.141 5.65455 26.7638 5.91876C26.1838 5.31097 25.4863 4.82745 24.7137 4.4976C23.9411 4.16775 23.1095 3.99846 22.2694 4.00001C18.8681 4.00001 16.1156 6.71251 16.1156 10.0563C16.1132 10.5214 16.1665 10.9851 16.2744 11.4375C13.8354 11.3232 11.4472 10.701 9.26249 9.6108C7.07777 8.52059 5.14468 6.98636 3.58687 5.10626C3.04036 6.02759 2.75133 7.07879 2.75 8.15001C2.75 10.25 3.84562 12.1063 5.5 13.1938C4.51983 13.1705 3.55974 12.9111 2.70125 12.4375V12.5125C2.70125 15.45 4.82625 17.8938 7.63875 18.45C7.10986 18.591 6.56486 18.6624 6.0175 18.6625C5.62911 18.6632 5.24161 18.6255 4.86062 18.55C5.6425 20.9563 7.91813 22.7063 10.6138 22.7563C8.42336 24.4443 5.73414 25.3567 2.96875 25.35C2.47789 25.3493 1.98748 25.3201 1.5 25.2625C4.31324 27.0589 7.5834 28.0091 10.9213 28C22.2563 28 28.4487 18.7688 28.4487 10.7625C28.4487 10.5 28.4419 10.2375 28.4294 9.98126C29.6313 9.1263 30.6711 8.06383 31.5 6.84376Z" fill="#D8D8D8"/>
</svg>
