<svg width="33" height="32" viewBox="0 0 33 32" fill="none" xmlns="http://www.w3.org/2000/svg">
<path d="M16.5 2C8.76875 2 2.5 8.43125 2.5 16.3562C2.5 22.7 6.5125 28.075 12.075 29.975C12.153 29.9919 12.2327 30.0003 12.3125 30C12.8313 30 13.0312 29.6187 13.0312 29.2875C13.0312 28.9437 13.0188 28.0437 13.0125 26.8437C12.5494 26.9523 12.0756 27.0089 11.6 27.0125C8.90625 27.0125 8.29375 24.9187 8.29375 24.9187C7.65625 23.2625 6.7375 22.8187 6.7375 22.8187C5.51875 21.9625 6.73125 21.9375 6.825 21.9375H6.83125C8.2375 22.0625 8.975 23.425 8.975 23.425C9.675 24.65 10.6125 24.9937 11.45 24.9937C12.0038 24.9827 12.549 24.8549 13.05 24.6187C13.175 23.6937 13.5375 23.0625 13.9375 22.7C10.8313 22.3375 7.5625 21.1062 7.5625 15.6062C7.5625 14.0375 8.10625 12.7562 9 11.7562C8.85625 11.3938 8.375 9.93125 9.1375 7.95625C9.23978 7.93178 9.3449 7.92126 9.45 7.925C9.95625 7.925 11.1 8.11875 12.9875 9.43125C15.281 8.78957 17.7065 8.78957 20 9.43125C21.8875 8.11875 23.0312 7.925 23.5375 7.925C23.6426 7.92126 23.7477 7.93178 23.85 7.95625C24.6125 9.93125 24.1312 11.3938 23.9875 11.7562C24.8812 12.7625 25.425 14.0437 25.425 15.6062C25.425 21.1187 22.15 22.3312 19.0312 22.6875C19.5312 23.1312 19.9813 24.0062 19.9813 25.3437C19.9813 27.2625 19.9625 28.8125 19.9625 29.2812C19.9625 29.6187 20.1562 30 20.675 30C20.759 30.0004 20.8428 29.992 20.925 29.975C26.4937 28.075 30.5 22.6938 30.5 16.3562C30.5 8.43125 24.2313 2 16.5 2Z" fill="#D8D8D8"/>
</svg>
