<svg width="33" height="32" viewBox="0 0 33 32" fill="none" xmlns="http://www.w3.org/2000/svg">
<g clip-path="url(#clip0_192_1011)">
<path d="M32.2899 9.29937C32.2899 6.48687 30.2211 4.22437 27.6649 4.22437C24.2024 4.0625 20.6711 4 17.0624 4H15.9374C12.3374 4 8.79989 4.0625 5.33739 4.225C2.78739 4.225 0.718642 6.5 0.718642 9.3125C0.562392 11.5369 0.496142 13.7619 0.499892 15.9869C0.493642 18.2119 0.564475 20.439 0.712392 22.6681C0.712392 25.4806 2.78114 27.7619 5.33114 27.7619C8.96864 27.9306 12.6999 28.0056 16.4936 27.9994C20.2936 28.0119 24.0145 27.9327 27.6561 27.7619C30.2124 27.7619 32.2811 25.4806 32.2811 22.6681C32.4311 20.4369 32.4999 18.2119 32.4936 15.9806C32.5078 13.7556 32.4399 11.5285 32.2899 9.29937ZM13.4374 22.1181V9.83687L22.4999 15.9744L13.4374 22.1181Z" fill="#D8D8D8"/>
</g>
<defs>
<clipPath id="clip0_192_1011">
<rect width="32" height="32" fill="white" transform="translate(0.5)"/>
</clipPath>
</defs>
</svg>
