<svg width="49" height="48" viewBox="0 0 49 48" fill="none" xmlns="http://www.w3.org/2000/svg">
<path d="M38.8001 42.275C37.3458 42.275 36.0903 41.8428 35.0336 40.9785C33.9773 40.1138 33.3118 39.0781 33.0371 37.8715H22.6501C20.4238 37.8715 18.5803 37.1406 17.1196 35.679C15.6589 34.217 14.9286 32.372 14.9286 30.144C14.9286 27.924 15.6589 26.083 17.1196 24.621C18.5803 23.1593 20.4238 22.4285 22.6501 22.4285H26.5001C27.8404 22.4285 28.9386 22.0001 29.7946 21.1435C30.6506 20.2871 31.0786 19.1885 31.0786 17.8475C31.0786 16.5065 30.6506 15.4086 29.7946 14.554C28.9386 13.699 27.8404 13.2715 26.5001 13.2715H15.9751C15.6591 14.4781 14.9813 15.5138 13.9416 16.3785C12.9016 17.2428 11.6544 17.675 10.2001 17.675C8.5291 17.675 7.11543 17.0968 5.9591 15.9405C4.8031 14.7841 4.2251 13.3705 4.2251 11.6995C4.2251 10.0281 4.8031 8.61447 5.9591 7.45847C7.11543 6.30281 8.5291 5.72498 10.2001 5.72498C11.6544 5.72498 12.9016 6.15714 13.9416 7.02148C14.9813 7.88614 15.6591 8.92181 15.9751 10.1285H26.5001C28.7241 10.1285 30.5671 10.8593 32.0291 12.321C33.4908 13.783 34.2216 15.626 34.2216 17.85C34.2216 20.074 33.4908 21.917 32.0291 23.379C30.5671 24.8406 28.7241 25.5715 26.5001 25.5715H22.6501C21.3074 25.5715 20.2088 25.999 19.3541 26.854C18.4991 27.7086 18.0716 28.8053 18.0716 30.144C18.0716 31.4906 18.4991 32.5913 19.3541 33.446C20.2088 34.301 21.3074 34.7285 22.6501 34.7285H33.0371C33.3451 33.5218 34.0189 32.4861 35.0586 31.6215C36.0986 30.7571 37.3458 30.325 38.8001 30.325C40.4711 30.325 41.8848 30.9031 43.0411 32.0595C44.1971 33.2158 44.7751 34.6295 44.7751 36.3005C44.7751 37.9718 44.1971 39.3855 43.0411 40.5415C41.8848 41.6971 40.4711 42.275 38.8001 42.275ZM10.2001 14.4C10.9668 14.4 11.6084 14.1416 12.1251 13.625C12.6418 13.1083 12.9001 12.4666 12.9001 11.7C12.9001 10.9333 12.6418 10.2916 12.1251 9.77498C11.6084 9.25831 10.9668 8.99998 10.2001 8.99998C9.43343 8.99998 8.79176 9.25831 8.2751 9.77498C7.75843 10.2916 7.5001 10.9333 7.5001 11.7C7.5001 12.4666 7.75843 13.1083 8.2751 13.625C8.79176 14.1416 9.43343 14.4 10.2001 14.4Z" fill="url(#paint0_linear_192_701)"/>
<defs>
<linearGradient id="paint0_linear_192_701" x1="24.5001" y1="5.72498" x2="24.5001" y2="42.275" gradientUnits="userSpaceOnUse">
<stop stop-color="white"/>
<stop offset="1" stop-color="white" stop-opacity="0.4"/>
</linearGradient>
</defs>
</svg>
