<svg width="49" height="48" viewBox="0 0 49 48" fill="none" xmlns="http://www.w3.org/2000/svg">
<path d="M26.2437 40.299V42.6675C26.2437 43.1351 26.0852 43.524 25.7682 43.834C25.4508 44.144 25.0585 44.299 24.5912 44.299C24.1238 44.299 23.7367 44.144 23.4297 43.834C23.1223 43.524 22.9687 43.1351 22.9687 42.6675V34.6555C22.9687 34.1931 23.1245 33.8056 23.4362 33.493C23.7478 33.1803 24.1388 33.024 24.6092 33.024C25.0765 33.024 25.4657 33.1803 25.7767 33.493C26.088 33.8056 26.2437 34.1931 26.2437 34.6555V37.024H41.1677C41.6333 37.024 42.0237 37.1816 42.3387 37.497C42.6537 37.8126 42.8112 38.2036 42.8112 38.67C42.8112 39.1333 42.6537 39.5206 42.3387 39.832C42.0237 40.1433 41.6333 40.299 41.1677 40.299H26.2437ZM7.83267 40.299C7.36501 40.299 6.97617 40.1405 6.66617 39.8235C6.35617 39.5061 6.20117 39.1158 6.20117 38.6525C6.20117 38.1891 6.35617 37.8018 6.66617 37.4905C6.97617 37.1795 7.36501 37.024 7.83267 37.024H18.3872C18.8578 37.024 19.239 37.1816 19.5307 37.497C19.8227 37.8126 19.9687 38.2036 19.9687 38.67C19.9687 39.1333 19.811 39.5206 19.4957 39.832C19.1803 40.1433 18.7902 40.299 18.3252 40.299H7.83267ZM19.3002 21.585H29.7262L31.5772 26.6245C31.6858 26.9455 31.8727 27.2031 32.1377 27.3975C32.4027 27.5918 32.7128 27.689 33.0682 27.689C33.6548 27.689 34.108 27.4511 34.4277 26.9755C34.7477 26.4998 34.8037 25.9978 34.5957 25.4695L26.5697 4.69896C26.4617 4.38296 26.2722 4.13563 26.0012 3.95696C25.7302 3.7783 25.421 3.68896 25.0737 3.68896H23.8717C23.5243 3.68896 23.216 3.78663 22.9467 3.98196C22.6773 4.1773 22.4887 4.43296 22.3807 4.74896L14.4047 25.4915C14.1887 26.0248 14.2453 26.5243 14.5747 26.99C14.904 27.456 15.349 27.689 15.9097 27.689C16.2657 27.689 16.584 27.587 16.8647 27.383C17.1457 27.179 17.3533 26.9173 17.4877 26.598L19.3002 21.585ZM20.3742 18.715L24.4502 7.27496H24.5382L28.6022 18.715H20.3742Z" fill="url(#paint0_linear_192_696)"/>
<defs>
<linearGradient id="paint0_linear_192_696" x1="24.5062" y1="3.68896" x2="24.5062" y2="44.299" gradientUnits="userSpaceOnUse">
<stop stop-color="white"/>
<stop offset="1" stop-color="white" stop-opacity="0.4"/>
</linearGradient>
</defs>
</svg>
