<svg width="49" height="48" viewBox="0 0 49 48" fill="none" xmlns="http://www.w3.org/2000/svg">
<path d="M20.8522 31.7475C21.6165 32.5158 22.722 32.875 24.1687 32.825C25.615 32.775 26.6755 32.2333 27.3502 31.2L36.1447 17.499C36.418 17.0843 36.391 16.7135 36.0637 16.3865C35.7367 16.0592 35.3658 16.0322 34.9512 16.3055L21.4002 25.2C20.4002 25.8747 19.8668 26.9435 19.8002 28.4065C19.7335 29.8695 20.0842 30.9832 20.8522 31.7475ZM24.4002 7.73901C25.8685 7.73901 27.4178 7.93501 29.0482 8.32701C30.6782 8.71868 32.289 9.35285 33.8807 10.2295C34.303 10.4708 34.553 10.8205 34.6307 11.2785C34.708 11.7365 34.6015 12.176 34.3112 12.597C34.0205 13.018 33.6728 13.2673 33.2682 13.345C32.8635 13.423 32.4332 13.362 31.9772 13.162C30.6665 12.4607 29.3313 11.9512 27.9717 11.6335C26.6123 11.3162 25.4218 11.1575 24.4002 11.1575C19.7572 11.1575 15.7977 12.8168 12.5217 16.1355C9.24567 19.4545 7.60767 23.4743 7.60767 28.195C7.60767 29.6983 7.81201 31.2007 8.22067 32.702C8.62934 34.2037 9.21301 35.6005 9.97167 36.8925H38.7767C39.5113 35.6925 40.0893 34.3103 40.5107 32.746C40.932 31.182 41.1427 29.6333 41.1427 28.1C41.1427 26.9857 41.0007 25.7823 40.7167 24.49C40.4323 23.1973 39.9562 21.9543 39.2882 20.761C39.0548 20.3303 38.9752 19.8685 39.0492 19.3755C39.1232 18.8825 39.3667 18.5023 39.7797 18.235C40.1833 17.9463 40.6245 17.8727 41.1032 18.014C41.5815 18.1553 41.9247 18.454 42.1327 18.91C42.8843 20.3997 43.4623 21.8847 43.8667 23.365C44.271 24.8457 44.5025 26.3223 44.5612 27.795C44.6198 29.8143 44.4128 31.7223 43.9402 33.519C43.4672 35.316 42.7748 36.9782 41.8632 38.5055C41.4235 39.3198 40.959 39.8223 40.4697 40.013C39.9807 40.2037 39.3742 40.299 38.6502 40.299H10.1002C9.47784 40.299 8.86767 40.1433 8.26967 39.832C7.67201 39.5207 7.22784 39.0785 6.93717 38.5055C6.06251 36.8975 5.38784 35.251 4.91317 33.566C4.43851 31.8813 4.20117 30.0923 4.20117 28.199C4.20117 25.393 4.73251 22.7495 5.79517 20.2685C6.85784 17.7875 8.30351 15.622 10.1322 13.772C11.9608 11.922 14.1057 10.454 16.5667 9.36801C19.0277 8.28201 21.6388 7.73901 24.4002 7.73901Z" fill="url(#paint0_linear_192_690)"/>
<defs>
<linearGradient id="paint0_linear_192_690" x1="24.386" y1="7.73901" x2="24.386" y2="40.299" gradientUnits="userSpaceOnUse">
<stop stop-color="white"/>
<stop offset="1" stop-color="white" stop-opacity="0.4"/>
</linearGradient>
</defs>
</svg>
